<?xml version="1.0" encoding="UTF-8" standalone="no"?>
<!DOCTYPE svg PUBLIC "-//W3C//DTD SVG 1.1//EN"
 "http://www.w3.org/Graphics/SVG/1.1/DTD/svg11.dtd">
<!-- Generated by graphviz version 14.1.3 (20260303.0454)
 -->
<!-- Pages: 1 -->
<svg width="1149pt" height="1054pt"
 viewBox="0.00 0.00 1149.00 1054.00" xmlns="http://www.w3.org/2000/svg" xmlns:xlink="http://www.w3.org/1999/xlink">
<g id="graph0" class="graph" transform="scale(1 1) rotate(0) translate(4 1050.25)">
<polygon fill="#ffffff" stroke="none" points="-4,4 -4,-1050.25 1145.25,-1050.25 1145.25,4 -4,4"/>
<!-- Raspberry_Pi_GPIO -->
<g id="node1" class="node">
<title>Raspberry_Pi_GPIO</title>
<polygon fill="#ffffff" stroke="black" points="178,-997.5 0,-997.5 0,0 178,0 178,-997.5"/>
<polygon fill="none" stroke="black" points="0,-973.75 0,-997.5 178,-997.5 178,-973.75 0,-973.75"/>
<text xml:space="preserve" text-anchor="start" x="26.75" y="-980.75" font-family="arial" font-size="14.00">Raspberry_Pi_GPIO</text>
<polygon fill="none" stroke="black" points="0,-950 0,-973.75 132.5,-973.75 132.5,-950 0,-950"/>
<text xml:space="preserve" text-anchor="start" x="4" y="-957" font-family="arial" font-size="14.00">40&#45;pin GPIO Header</text>
<polygon fill="none" stroke="black" points="132.5,-950 132.5,-973.75 178,-973.75 178,-950 132.5,-950"/>
<text xml:space="preserve" text-anchor="start" x="136.5" y="-957" font-family="arial" font-size="14.00">40&#45;pin</text>
<polygon fill="none" stroke="black" points="0,-926.25 0,-950 128.38,-950 128.38,-926.25 0,-926.25"/>
<text xml:space="preserve" text-anchor="start" x="28.56" y="-933.25" font-family="arial" font-size="14.00">3.3V (Pin 1)</text>
<polygon fill="none" stroke="black" points="128.38,-926.25 128.38,-950 178,-950 178,-926.25 128.38,-926.25"/>
<text xml:space="preserve" text-anchor="start" x="149.44" y="-933.25" font-family="arial" font-size="14.00">1</text>
<polygon fill="none" stroke="black" points="0,-902.5 0,-926.25 128.38,-926.25 128.38,-902.5 0,-902.5"/>
<text xml:space="preserve" text-anchor="start" x="34.19" y="-909.5" font-family="arial" font-size="14.00">5V (Pin 2)</text>
<polygon fill="none" stroke="black" points="128.38,-902.5 128.38,-926.25 178,-926.25 178,-902.5 128.38,-902.5"/>
<text xml:space="preserve" text-anchor="start" x="149.44" y="-909.5" font-family="arial" font-size="14.00">2</text>
<polygon fill="none" stroke="black" points="0,-878.75 0,-902.5 128.38,-902.5 128.38,-878.75 0,-878.75"/>
<text xml:space="preserve" text-anchor="start" x="21.06" y="-885.75" font-family="arial" font-size="14.00">GPIO2 (Pin 3)</text>
<polygon fill="none" stroke="black" points="128.38,-878.75 128.38,-902.5 178,-902.5 178,-878.75 128.38,-878.75"/>
<text xml:space="preserve" text-anchor="start" x="149.44" y="-885.75" font-family="arial" font-size="14.00">3</text>
<polygon fill="none" stroke="black" points="0,-855 0,-878.75 128.38,-878.75 128.38,-855 0,-855"/>
<text xml:space="preserve" text-anchor="start" x="34.19" y="-862" font-family="arial" font-size="14.00">5V (Pin 4)</text>
<polygon fill="none" stroke="black" points="128.38,-855 128.38,-878.75 178,-878.75 178,-855 128.38,-855"/>
<text xml:space="preserve" text-anchor="start" x="149.44" y="-862" font-family="arial" font-size="14.00">4</text>
<polygon fill="none" stroke="black" points="0,-831.25 0,-855 128.38,-855 128.38,-831.25 0,-831.25"/>
<text xml:space="preserve" text-anchor="start" x="21.06" y="-838.25" font-family="arial" font-size="14.00">GPIO3 (Pin 5)</text>
<polygon fill="none" stroke="black" points="128.38,-831.25 128.38,-855 178,-855 178,-831.25 128.38,-831.25"/>
<text xml:space="preserve" text-anchor="start" x="149.44" y="-838.25" font-family="arial" font-size="14.00">5</text>
<polygon fill="none" stroke="black" points="0,-807.5 0,-831.25 128.38,-831.25 128.38,-807.5 0,-807.5"/>
<text xml:space="preserve" text-anchor="start" x="27.06" y="-814.5" font-family="arial" font-size="14.00">GND (Pin 6)</text>
<polygon fill="none" stroke="black" points="128.38,-807.5 128.38,-831.25 178,-831.25 178,-807.5 128.38,-807.5"/>
<text xml:space="preserve" text-anchor="start" x="149.44" y="-814.5" font-family="arial" font-size="14.00">6</text>
<polygon fill="none" stroke="black" points="0,-783.75 0,-807.5 128.38,-807.5 128.38,-783.75 0,-783.75"/>
<text xml:space="preserve" text-anchor="start" x="21.06" y="-790.75" font-family="arial" font-size="14.00">GPIO4 (Pin 7)</text>
<polygon fill="none" stroke="black" points="128.38,-783.75 128.38,-807.5 178,-807.5 178,-783.75 128.38,-783.75"/>
<text xml:space="preserve" text-anchor="start" x="149.44" y="-790.75" font-family="arial" font-size="14.00">7</text>
<polygon fill="none" stroke="black" points="0,-760 0,-783.75 128.38,-783.75 128.38,-760 0,-760"/>
<text xml:space="preserve" text-anchor="start" x="60.44" y="-767" font-family="arial" font-size="14.00">8</text>
<polygon fill="none" stroke="black" points="0,-736.25 0,-760 128.38,-760 128.38,-736.25 0,-736.25"/>
<text xml:space="preserve" text-anchor="start" x="60.44" y="-743.25" font-family="arial" font-size="14.00">9</text>
<polygon fill="none" stroke="black" points="0,-712.5 0,-736.25 128.38,-736.25 128.38,-712.5 0,-712.5"/>
<text xml:space="preserve" text-anchor="start" x="56.69" y="-719.5" font-family="arial" font-size="14.00">10</text>
<polygon fill="none" stroke="black" points="0,-688.75 0,-712.5 128.38,-712.5 128.38,-688.75 0,-688.75"/>
<text xml:space="preserve" text-anchor="start" x="56.69" y="-695.75" font-family="arial" font-size="14.00">11</text>
<polygon fill="none" stroke="black" points="0,-665 0,-688.75 128.38,-688.75 128.38,-665 0,-665"/>
<text xml:space="preserve" text-anchor="start" x="56.69" y="-672" font-family="arial" font-size="14.00">12</text>
<polygon fill="none" stroke="black" points="0,-641.25 0,-665 128.38,-665 128.38,-641.25 0,-641.25"/>
<text xml:space="preserve" text-anchor="start" x="56.69" y="-648.25" font-family="arial" font-size="14.00">13</text>
<polygon fill="none" stroke="black" points="0,-617.5 0,-641.25 128.38,-641.25 128.38,-617.5 0,-617.5"/>
<text xml:space="preserve" text-anchor="start" x="56.69" y="-624.5" font-family="arial" font-size="14.00">14</text>
<polygon fill="none" stroke="black" points="0,-593.75 0,-617.5 128.38,-617.5 128.38,-593.75 0,-593.75"/>
<text xml:space="preserve" text-anchor="start" x="56.69" y="-600.75" font-family="arial" font-size="14.00">15</text>
<polygon fill="none" stroke="black" points="0,-570 0,-593.75 128.38,-593.75 128.38,-570 0,-570"/>
<text xml:space="preserve" text-anchor="start" x="56.69" y="-577" font-family="arial" font-size="14.00">16</text>
<polygon fill="none" stroke="black" points="0,-546.25 0,-570 128.38,-570 128.38,-546.25 0,-546.25"/>
<text xml:space="preserve" text-anchor="start" x="56.69" y="-553.25" font-family="arial" font-size="14.00">17</text>
<polygon fill="none" stroke="black" points="0,-522.5 0,-546.25 128.38,-546.25 128.38,-522.5 0,-522.5"/>
<text xml:space="preserve" text-anchor="start" x="56.69" y="-529.5" font-family="arial" font-size="14.00">18</text>
<polygon fill="none" stroke="black" points="0,-498.75 0,-522.5 128.38,-522.5 128.38,-498.75 0,-498.75"/>
<text xml:space="preserve" text-anchor="start" x="56.69" y="-505.75" font-family="arial" font-size="14.00">19</text>
<polygon fill="none" stroke="black" points="0,-475 0,-498.75 128.38,-498.75 128.38,-475 0,-475"/>
<text xml:space="preserve" text-anchor="start" x="56.69" y="-482" font-family="arial" font-size="14.00">20</text>
<polygon fill="none" stroke="black" points="0,-451.25 0,-475 128.38,-475 128.38,-451.25 0,-451.25"/>
<text xml:space="preserve" text-anchor="start" x="56.69" y="-458.25" font-family="arial" font-size="14.00">21</text>
<polygon fill="none" stroke="black" points="0,-427.5 0,-451.25 128.38,-451.25 128.38,-427.5 0,-427.5"/>
<text xml:space="preserve" text-anchor="start" x="56.69" y="-434.5" font-family="arial" font-size="14.00">22</text>
<polygon fill="none" stroke="black" points="0,-403.75 0,-427.5 128.38,-427.5 128.38,-403.75 0,-403.75"/>
<text xml:space="preserve" text-anchor="start" x="56.69" y="-410.75" font-family="arial" font-size="14.00">23</text>
<polygon fill="none" stroke="black" points="0,-380 0,-403.75 128.38,-403.75 128.38,-380 0,-380"/>
<text xml:space="preserve" text-anchor="start" x="56.69" y="-387" font-family="arial" font-size="14.00">24</text>
<polygon fill="none" stroke="black" points="0,-356.25 0,-380 128.38,-380 128.38,-356.25 0,-356.25"/>
<text xml:space="preserve" text-anchor="start" x="56.69" y="-363.25" font-family="arial" font-size="14.00">25</text>
<polygon fill="none" stroke="black" points="0,-332.5 0,-356.25 128.38,-356.25 128.38,-332.5 0,-332.5"/>
<text xml:space="preserve" text-anchor="start" x="56.69" y="-339.5" font-family="arial" font-size="14.00">26</text>
<polygon fill="none" stroke="black" points="0,-308.75 0,-332.5 128.38,-332.5 128.38,-308.75 0,-308.75"/>
<text xml:space="preserve" text-anchor="start" x="56.69" y="-315.75" font-family="arial" font-size="14.00">27</text>
<polygon fill="none" stroke="black" points="0,-285 0,-308.75 128.38,-308.75 128.38,-285 0,-285"/>
<text xml:space="preserve" text-anchor="start" x="56.69" y="-292" font-family="arial" font-size="14.00">28</text>
<polygon fill="none" stroke="black" points="0,-261.25 0,-285 128.38,-285 128.38,-261.25 0,-261.25"/>
<text xml:space="preserve" text-anchor="start" x="56.69" y="-268.25" font-family="arial" font-size="14.00">29</text>
<polygon fill="none" stroke="black" points="0,-237.5 0,-261.25 128.38,-261.25 128.38,-237.5 0,-237.5"/>
<text xml:space="preserve" text-anchor="start" x="56.69" y="-244.5" font-family="arial" font-size="14.00">30</text>
<polygon fill="none" stroke="black" points="0,-213.75 0,-237.5 128.38,-237.5 128.38,-213.75 0,-213.75"/>
<text xml:space="preserve" text-anchor="start" x="56.69" y="-220.75" font-family="arial" font-size="14.00">31</text>
<polygon fill="none" stroke="black" points="0,-190 0,-213.75 128.38,-213.75 128.38,-190 0,-190"/>
<text xml:space="preserve" text-anchor="start" x="56.69" y="-197" font-family="arial" font-size="14.00">32</text>
<polygon fill="none" stroke="black" points="0,-166.25 0,-190 128.38,-190 128.38,-166.25 0,-166.25"/>
<text xml:space="preserve" text-anchor="start" x="56.69" y="-173.25" font-family="arial" font-size="14.00">33</text>
<polygon fill="none" stroke="black" points="0,-142.5 0,-166.25 128.38,-166.25 128.38,-142.5 0,-142.5"/>
<text xml:space="preserve" text-anchor="start" x="56.69" y="-149.5" font-family="arial" font-size="14.00">34</text>
<polygon fill="none" stroke="black" points="0,-118.75 0,-142.5 128.38,-142.5 128.38,-118.75 0,-118.75"/>
<text xml:space="preserve" text-anchor="start" x="56.69" y="-125.75" font-family="arial" font-size="14.00">35</text>
<polygon fill="none" stroke="black" points="0,-95 0,-118.75 128.38,-118.75 128.38,-95 0,-95"/>
<text xml:space="preserve" text-anchor="start" x="56.69" y="-102" font-family="arial" font-size="14.00">36</text>
<polygon fill="none" stroke="black" points="0,-71.25 0,-95 128.38,-95 128.38,-71.25 0,-71.25"/>
<text xml:space="preserve" text-anchor="start" x="56.69" y="-78.25" font-family="arial" font-size="14.00">37</text>
<polygon fill="none" stroke="black" points="0,-47.5 0,-71.25 128.38,-71.25 128.38,-47.5 0,-47.5"/>
<text xml:space="preserve" text-anchor="start" x="56.69" y="-54.5" font-family="arial" font-size="14.00">38</text>
<polygon fill="none" stroke="black" points="0,-23.75 0,-47.5 128.38,-47.5 128.38,-23.75 0,-23.75"/>
<text xml:space="preserve" text-anchor="start" x="56.69" y="-30.75" font-family="arial" font-size="14.00">39</text>
<polygon fill="none" stroke="black" points="0,0 0,-23.75 128.38,-23.75 128.38,0 0,0"/>
<text xml:space="preserve" text-anchor="start" x="56.69" y="-7" font-family="arial" font-size="14.00">40</text>
</g>
<!-- Main_Wiring -->
<g id="node4" class="node">
<title>Main_Wiring</title>
<polygon fill="#ffffff" stroke="black" points="847,-960.88 322,-960.88 322,-796.62 847,-796.62 847,-960.88"/>
<polygon fill="none" stroke="black" points="322,-937.12 322,-960.88 847,-960.88 847,-937.12 322,-937.12"/>
<text xml:space="preserve" text-anchor="start" x="546.25" y="-944.12" font-family="arial" font-size="14.00">Main_Wiring</text>
<polygon fill="none" stroke="black" points="322,-913.38 322,-937.12 847,-937.12 847,-913.38 322,-913.38"/>
<text xml:space="preserve" text-anchor="start" x="577.38" y="-920.38" font-family="arial" font-size="14.00">3x</text>
<text xml:space="preserve" text-anchor="start" x="435" y="-898.62" font-family="arial" font-size="14.00"> </text>
<text xml:space="preserve" text-anchor="start" x="331.5" y="-878.88" font-family="arial" font-size="14.00">Raspberry_Pi_GPIO:1:3.3V (Pin 1)</text>
<text xml:space="preserve" text-anchor="start" x="574.75" y="-878.88" font-family="arial" font-size="14.00"> &#160;&#160;&#160;&#160;1:RD:3.3V &#160;&#160;&#160;</text>
<text xml:space="preserve" text-anchor="start" x="700.62" y="-878.88" font-family="arial" font-size="14.00">PullUp_Resistor:1:3.3V</text>
<polygon fill="#000000" stroke="none" points="322,-871.88 322,-873.88 847,-873.88 847,-871.88 322,-871.88"/>
<polygon fill="#ff0000" stroke="none" points="322,-869.88 322,-871.88 847,-871.88 847,-869.88 322,-869.88"/>
<polygon fill="#000000" stroke="none" points="322,-867.88 322,-869.88 847,-869.88 847,-867.88 322,-867.88"/>
<text xml:space="preserve" text-anchor="start" x="324" y="-853.12" font-family="arial" font-size="14.00">Raspberry_Pi_GPIO:7:GPIO4 (Pin 7)</text>
<text xml:space="preserve" text-anchor="start" x="553.75" y="-853.12" font-family="arial" font-size="14.00"> &#160;&#160;&#160;&#160;2:YL:1&#45;Wire Data &#160;&#160;&#160;</text>
<text xml:space="preserve" text-anchor="start" x="697.25" y="-853.12" font-family="arial" font-size="14.00">PullUp_Resistor:2:DATA</text>
<polygon fill="#000000" stroke="none" points="322,-846.12 322,-848.12 847,-848.12 847,-846.12 322,-846.12"/>
<polygon fill="#ffffff" stroke="none" points="322,-844.12 322,-846.12 847,-846.12 847,-844.12 322,-844.12"/>
<polygon fill="#000000" stroke="none" points="322,-842.12 322,-844.12 847,-844.12 847,-842.12 322,-842.12"/>
<text xml:space="preserve" text-anchor="start" x="330" y="-827.38" font-family="arial" font-size="14.00">Raspberry_Pi_GPIO:6:GND (Pin 6)</text>
<text xml:space="preserve" text-anchor="start" x="574" y="-827.38" font-family="arial" font-size="14.00"> &#160;&#160;&#160;&#160;3:BK:GND &#160;&#160;&#160;</text>
<text xml:space="preserve" text-anchor="start" x="695.75" y="-827.38" font-family="arial" font-size="14.00">DS18B20:3:GND (Black)</text>
<polygon fill="#000000" stroke="none" points="322,-820.38 322,-822.38 847,-822.38 847,-820.38 322,-820.38"/>
<polygon fill="#000000" stroke="none" points="322,-818.38 322,-820.38 847,-820.38 847,-818.38 322,-818.38"/>
<polygon fill="#000000" stroke="none" points="322,-816.38 322,-818.38 847,-818.38 847,-816.38 322,-816.38"/>
<text xml:space="preserve" text-anchor="start" x="435" y="-801.62" font-family="arial" font-size="14.00"> </text>
</g>
<!-- Raspberry_Pi_GPIO&#45;&#45;Main_Wiring -->
<g id="edge1" class="edge">
<title>Raspberry_Pi_GPIO:e&#45;&#45;Main_Wiring:w</title>
<path fill="none" stroke="#000000" stroke-width="2" d="M178,-936.13C246.64,-938.04 249.37,-870.79 322,-868.88"/>
<path fill="none" stroke="#ff0000" stroke-width="2" d="M178,-938.12C248.64,-938.12 251.36,-870.87 322,-870.87"/>
<path fill="none" stroke="#000000" stroke-width="2" d="M178,-940.12C250.63,-938.21 253.36,-870.96 322,-872.87"/>
</g>
<!-- Raspberry_Pi_GPIO&#45;&#45;Main_Wiring -->
<g id="edge2" class="edge">
<title>Raspberry_Pi_GPIO:e&#45;&#45;Main_Wiring:w</title>
<path fill="none" stroke="#000000" stroke-width="2" d="M178,-793.63C247.65,-795.28 256.29,-844.78 322,-843.13"/>
<path fill="none" stroke="#ffffff" stroke-width="2" d="M178,-795.63C245.68,-795.62 254.32,-845.12 322,-845.13"/>
<path fill="none" stroke="#000000" stroke-width="2" d="M178,-797.62C243.71,-795.97 252.35,-845.47 322,-847.12"/>
</g>
<!-- Raspberry_Pi_GPIO&#45;&#45;Main_Wiring -->
<g id="edge3" class="edge">
<title>Raspberry_Pi_GPIO:e&#45;&#45;Main_Wiring:w</title>
<path fill="none" stroke="#000000" stroke-width="2" d="M178,-817.38C242,-817.38 258,-817.38 322,-817.38"/>
<path fill="none" stroke="#000000" stroke-width="2" d="M178,-819.38C242,-819.38 258,-819.38 322,-819.38"/>
<path fill="none" stroke="#000000" stroke-width="2" d="M178,-821.37C242,-821.38 258,-821.38 322,-821.37"/>
</g>
<!-- PullUp_Resistor -->
<g id="node2" class="node">
<title>PullUp_Resistor</title>
<polygon fill="#ffffff" stroke="black" points="1133.75,-1046.25 998.5,-1046.25 998.5,-951.25 1133.75,-951.25 1133.75,-1046.25"/>
<polygon fill="none" stroke="black" points="998.5,-1022.5 998.5,-1046.25 1133.75,-1046.25 1133.75,-1022.5 998.5,-1022.5"/>
<text xml:space="preserve" text-anchor="start" x="1017.75" y="-1029.5" font-family="arial" font-size="14.00">PullUp_Resistor</text>
<polygon fill="none" stroke="black" points="998.5,-998.75 998.5,-1022.5 1095.75,-1022.5 1095.75,-998.75 998.5,-998.75"/>
<text xml:space="preserve" text-anchor="start" x="1002.5" y="-1005.75" font-family="arial" font-size="14.00">Resistor 4.7kΩ</text>
<polygon fill="none" stroke="black" points="1095.75,-998.75 1095.75,-1022.5 1133.75,-1022.5 1133.75,-998.75 1095.75,-998.75"/>
<text xml:space="preserve" text-anchor="start" x="1099.75" y="-1005.75" font-family="arial" font-size="14.00">2&#45;pin</text>
<polygon fill="none" stroke="black" points="998.5,-975 998.5,-998.75 1052.62,-998.75 1052.62,-975 998.5,-975"/>
<text xml:space="preserve" text-anchor="start" x="1021.81" y="-982" font-family="arial" font-size="14.00">1</text>
<polygon fill="none" stroke="black" points="1052.62,-975 1052.62,-998.75 1133.75,-998.75 1133.75,-975 1052.62,-975"/>
<text xml:space="preserve" text-anchor="start" x="1079.31" y="-982" font-family="arial" font-size="14.00">3.3V</text>
<polygon fill="none" stroke="black" points="998.5,-951.25 998.5,-975 1052.62,-975 1052.62,-951.25 998.5,-951.25"/>
<text xml:space="preserve" text-anchor="start" x="1021.81" y="-958.25" font-family="arial" font-size="14.00">2</text>
<polygon fill="none" stroke="black" points="1052.62,-951.25 1052.62,-975 1133.75,-975 1133.75,-951.25 1052.62,-951.25"/>
<text xml:space="preserve" text-anchor="start" x="1075.94" y="-958.25" font-family="arial" font-size="14.00">DATA</text>
</g>
<!-- DS18B20 -->
<g id="node3" class="node">
<title>DS18B20</title>
<polygon fill="#ffffff" stroke="black" points="1141.25,-927.12 991,-927.12 991,-808.38 1141.25,-808.38 1141.25,-927.12"/>
<polygon fill="none" stroke="black" points="991,-903.38 991,-927.12 1141.25,-927.12 1141.25,-903.38 991,-903.38"/>
<text xml:space="preserve" text-anchor="start" x="1037.25" y="-910.38" font-family="arial" font-size="14.00">DS18B20</text>
<polygon fill="none" stroke="black" points="991,-879.62 991,-903.38 1103.25,-903.38 1103.25,-879.62 991,-879.62"/>
<text xml:space="preserve" text-anchor="start" x="995" y="-886.62" font-family="arial" font-size="14.00">DS18B20 Sensor</text>
<polygon fill="none" stroke="black" points="1103.25,-879.62 1103.25,-903.38 1141.25,-903.38 1141.25,-879.62 1103.25,-879.62"/>
<text xml:space="preserve" text-anchor="start" x="1107.25" y="-886.62" font-family="arial" font-size="14.00">3&#45;pin</text>
<polygon fill="none" stroke="black" points="991,-855.88 991,-879.62 1027.12,-879.62 1027.12,-855.88 991,-855.88"/>
<text xml:space="preserve" text-anchor="start" x="1005.31" y="-862.88" font-family="arial" font-size="14.00">1</text>
<polygon fill="none" stroke="black" points="1027.12,-855.88 1027.12,-879.62 1141.25,-879.62 1141.25,-855.88 1027.12,-855.88"/>
<text xml:space="preserve" text-anchor="start" x="1051.19" y="-862.88" font-family="arial" font-size="14.00">VCC (Red)</text>
<polygon fill="none" stroke="black" points="991,-832.12 991,-855.88 1027.12,-855.88 1027.12,-832.12 991,-832.12"/>
<text xml:space="preserve" text-anchor="start" x="1005.31" y="-839.12" font-family="arial" font-size="14.00">2</text>
<polygon fill="none" stroke="black" points="1027.12,-832.12 1027.12,-855.88 1141.25,-855.88 1141.25,-832.12 1027.12,-832.12"/>
<text xml:space="preserve" text-anchor="start" x="1041.44" y="-839.12" font-family="arial" font-size="14.00">DATA (Yellow)</text>
<polygon fill="none" stroke="black" points="991,-808.38 991,-832.12 1027.12,-832.12 1027.12,-808.38 991,-808.38"/>
<text xml:space="preserve" text-anchor="start" x="1005.31" y="-815.38" font-family="arial" font-size="14.00">3</text>
<polygon fill="none" stroke="black" points="1027.12,-808.38 1027.12,-832.12 1141.25,-832.12 1141.25,-808.38 1027.12,-808.38"/>
<text xml:space="preserve" text-anchor="start" x="1045.94" y="-815.38" font-family="arial" font-size="14.00">GND (Black)</text>
</g>
<!-- Main_Wiring&#45;&#45;PullUp_Resistor -->
<g id="edge4" class="edge">
<title>Main_Wiring:e&#45;&#45;PullUp_Resistor:w</title>
<path fill="none" stroke="#000000" stroke-width="2" d="M847,-868.88C933.43,-871.19 915.02,-987.19 997.5,-984.88"/>
<path fill="none" stroke="#ff0000" stroke-width="2" d="M847,-870.88C931.45,-870.88 913.05,-986.88 997.5,-986.88"/>
<path fill="none" stroke="#000000" stroke-width="2" d="M847,-872.87C929.48,-870.56 911.07,-986.56 997.5,-988.87"/>
</g>
<!-- Main_Wiring&#45;&#45;PullUp_Resistor -->
<g id="edge5" class="edge">
<title>Main_Wiring:e&#45;&#45;PullUp_Resistor:w</title>
<path fill="none" stroke="#000000" stroke-width="2" d="M847,-843.13C933.97,-845.45 914.48,-963.45 997.5,-961.13"/>
<path fill="none" stroke="#ffffff" stroke-width="2" d="M847,-845.12C932,-845.12 912.5,-963.12 997.5,-963.12"/>
<path fill="none" stroke="#000000" stroke-width="2" d="M847,-847.12C930.02,-844.8 910.53,-962.8 997.5,-965.12"/>
</g>
<!-- Main_Wiring&#45;&#45;DS18B20 -->
<g id="edge6" class="edge">
<title>Main_Wiring:e&#45;&#45;DS18B20:w</title>
<path fill="none" stroke="#000000" stroke-width="2" d="M847,-868.88C910.63,-868.91 926.6,-865.79 991,-865.75"/>
<path fill="none" stroke="#ff0000" stroke-width="2" d="M847,-870.88C911.02,-870.87 926.98,-867.75 991,-867.75"/>
<path fill="none" stroke="#000000" stroke-width="2" d="M847,-872.87C911.4,-872.84 927.37,-869.71 991,-869.75"/>
</g>
<!-- Main_Wiring&#45;&#45;DS18B20 -->
<g id="edge7" class="edge">
<title>Main_Wiring:e&#45;&#45;DS18B20:w</title>
<path fill="none" stroke="#000000" stroke-width="2" d="M847,-843.13C910.86,-843.13 926.86,-842 991,-842"/>
<path fill="none" stroke="#ffffff" stroke-width="2" d="M847,-845.13C911,-845.12 927,-844 991,-844"/>
<path fill="none" stroke="#000000" stroke-width="2" d="M847,-847.12C911.14,-847.12 927.14,-846 991,-846"/>
</g>
<!-- Main_Wiring&#45;&#45;DS18B20 -->
<g id="edge8" class="edge">
<title>Main_Wiring:e&#45;&#45;DS18B20:w</title>
<path fill="none" stroke="#000000" stroke-width="2" d="M847,-817.38C911.11,-817.38 927.11,-818.25 991,-818.25"/>
<path fill="none" stroke="#000000" stroke-width="2" d="M847,-819.38C911,-819.38 927,-820.25 991,-820.25"/>
<path fill="none" stroke="#000000" stroke-width="2" d="M847,-821.37C910.89,-821.37 926.89,-822.25 991,-822.25"/>
</g>
</g>
</svg>
